<svg width="512" height="512" viewBox="0 0 512 512" fill="none" xmlns="http://www.w3.org/2000/svg">
<rect width="512" height="512" rx="80" fill="white"/>
<path fill-rule="evenodd" clip-rule="evenodd" d="M178.516 146.213L102.3 222.425V255.49V288.557L147.997 334.265L193.692 379.972L220.006 353.665C234.477 339.195 246.519 327.357 246.767 327.357C247.014 327.357 247.215 351.199 247.215 380.338V433.319L250.973 437.174L254.732 441.03L331.248 364.506L407.764 287.983L407.77 254.905L407.778 221.828L362.221 176.61C337.166 151.739 316.419 131.378 316.119 131.361C315.819 131.346 303.901 142.968 289.635 157.188C275.368 171.409 263.505 183.044 263.272 183.044C263.04 183.044 262.849 159.292 262.849 130.262V77.4812L259.074 73.7406C256.999 71.6825 255.172 70 255.015 70C254.858 70 220.434 104.295 178.516 146.213ZM247.215 120.378V140.092L195.352 191.926L143.49 243.761L133.415 233.701L123.342 223.64L184.826 162.153C218.642 128.335 246.515 100.665 246.763 100.665C247.012 100.665 247.215 109.536 247.215 120.378ZM354.396 191.311L392.13 229.04V249.185V269.331L344.18 221.38L296.229 173.43L306.14 163.506C311.59 158.047 316.188 153.58 316.356 153.58C316.524 153.58 333.643 170.559 354.396 191.311ZM247.215 181.593V199.985L219.533 227.719L191.851 255.453L217.877 281.484L243.901 307.514L234.728 316.533C229.682 321.494 225.478 325.553 225.389 325.553C225.046 325.553 155.508 255.758 155.331 255.236C155.124 254.63 245.898 163.201 246.706 163.201C246.986 163.201 247.215 171.478 247.215 181.593ZM354.698 255.296C354.392 256.108 263.868 347.201 263.368 347.201C263.083 347.201 262.85 339.015 262.85 329.011L262.852 310.822L290.652 283.006L318.454 255.19L292.455 229.186L266.457 203.184L275.625 194.015L284.792 184.849L319.821 219.873C339.086 239.136 354.781 255.076 354.698 255.296ZM246.897 287.589C246.715 287.77 239.277 280.625 230.367 271.71L214.166 255.501L230.541 239.112L246.915 222.722L247.071 254.992C247.155 272.739 247.077 287.409 246.897 287.589ZM279.649 239.039L295.635 255.349L279.501 271.51C270.629 280.398 263.252 287.672 263.109 287.672C262.966 287.672 262.849 273.06 262.849 255.201C262.849 237.342 263.032 222.73 263.255 222.73C263.48 222.73 270.856 230.07 279.649 239.039ZM213.542 337.277C213.542 337.791 203.446 347.883 195.912 354.898L193.617 357.036L155.775 319.199L117.935 281.362V261.217V241.073L165.738 288.874C192.03 315.164 213.542 336.946 213.542 337.277ZM376.643 276.693L386.722 286.762L325.238 348.249C291.422 382.067 263.549 409.737 263.301 409.737C263.052 409.737 262.849 400.876 262.849 390.047V370.359L314.41 318.589C342.77 290.118 366.105 266.778 366.266 266.724C366.429 266.671 371.098 271.156 376.643 276.693Z" fill="#0063E2"/>
</svg>
