<svg width="40" height="40" viewBox="0 0 40 40" fill="none" xmlns="http://www.w3.org/2000/svg">
<path d="M4 4C4 1.79086 5.79086 0 8 0H24L36 12V36C36 38.2091 34.2091 40 32 40H8C5.79086 40 4 38.2091 4 36V4Z" fill="#E31B54"/>
<path d="M24 0L36 12H28C25.7909 12 24 10.2091 24 8V0Z" fill="#F27296"/>
<path d="M13.1495 25.4547V32.0002H11.7656V25.4547H13.1495Z" fill="white"/>
<path d="M14.2881 25.4547H15.9948L17.7973 29.8525H17.874L19.6766 25.4547H21.3833V32.0002H20.0409V27.7399H19.9866L18.2927 31.9682H17.3786L15.6847 27.7239H15.6304V32.0002H14.2881V25.4547Z" fill="white"/>
<path d="M26.8636 27.5705C26.8189 27.415 26.756 27.2775 26.6751 27.1582C26.5941 27.0368 26.495 26.9345 26.3778 26.8514C26.2628 26.7662 26.1307 26.7012 25.9815 26.6564C25.8345 26.6117 25.6715 26.5893 25.4925 26.5893C25.158 26.5893 24.864 26.6724 24.6104 26.8386C24.359 27.0048 24.163 27.2466 24.0224 27.5641C23.8817 27.8794 23.8114 28.2651 23.8114 28.7211C23.8114 29.177 23.8807 29.5648 24.0192 29.8844C24.1577 30.204 24.3537 30.448 24.6072 30.6163C24.8608 30.7825 25.1602 30.8656 25.5053 30.8656C25.8185 30.8656 26.0859 30.8102 26.3075 30.6994C26.5312 30.5865 26.7017 30.4277 26.8189 30.2232C26.9382 30.0186 26.9979 29.7768 26.9979 29.4977L27.2791 29.5392H25.5916V28.4973H28.3306V29.3219C28.3306 29.8972 28.2092 30.3915 27.9663 30.8049C27.7234 31.2161 27.3888 31.5336 26.9627 31.7573C26.5366 31.9789 26.0487 32.0897 25.4989 32.0897C24.8853 32.0897 24.3462 31.9544 23.8817 31.6838C23.4173 31.411 23.055 31.0243 22.7951 30.5236C22.5373 30.0208 22.4084 29.4242 22.4084 28.7338C22.4084 28.2033 22.4851 27.7303 22.6385 27.3148C22.794 26.8972 23.0114 26.5435 23.2905 26.2537C23.5696 25.964 23.8945 25.7434 24.2653 25.5922C24.636 25.4409 25.0376 25.3652 25.4702 25.3652C25.8409 25.3652 26.1861 25.4196 26.5057 25.5282C26.8253 25.6348 27.1087 25.786 27.3558 25.9821C27.6051 26.1781 27.8086 26.4114 27.9663 26.682C28.1239 26.9505 28.2251 27.2466 28.2699 27.5705H26.8636Z" fill="white"/>
</svg>
