<svg width="40" height="40" viewBox="0 0 40 40" fill="none" xmlns="http://www.w3.org/2000/svg">
<path d="M4 4C4 1.79086 5.79086 0 8 0H24L36 12V36C36 38.2091 34.2091 40 32 40H8C5.79086 40 4 38.2091 4 36V4Z" fill="#0E9384"/>
<path d="M24 0L36 12H28C25.7909 12 24 10.2091 24 8V0Z" fill="#56BDB2"/>
<path d="M10.9219 32.0002V25.4547H13.5043C14.0007 25.4547 14.4237 25.5495 14.7731 25.7392C15.1225 25.9267 15.3888 26.1877 15.5721 26.5222C15.7575 26.8546 15.8501 27.2381 15.8501 27.6728C15.8501 28.1074 15.7564 28.4909 15.5689 28.8233C15.3814 29.1557 15.1097 29.4146 14.7539 29.6C14.4002 29.7853 13.9719 29.878 13.4691 29.878H11.8232V28.769H13.2454C13.5117 28.769 13.7312 28.7232 13.9038 28.6316C14.0785 28.5378 14.2085 28.4089 14.2937 28.2449C14.381 28.0787 14.4247 27.888 14.4247 27.6728C14.4247 27.4554 14.381 27.2658 14.2937 27.1039C14.2085 26.9398 14.0785 26.813 13.9038 26.7235C13.729 26.6319 13.5075 26.5861 13.239 26.5861H12.3058V32.0002H10.9219Z" fill="white"/>
<path d="M22.2238 25.4547V32.0002H21.0285L18.1808 27.8805H18.1329V32.0002H16.749V25.4547H17.9635L20.7888 29.5712H20.8463V25.4547H22.2238Z" fill="white"/>
<path d="M27.7074 27.5705C27.6626 27.415 27.5998 27.2775 27.5188 27.1582C27.4379 27.0368 27.3388 26.9345 27.2216 26.8514C27.1065 26.7662 26.9744 26.7012 26.8253 26.6564C26.6783 26.6117 26.5153 26.5893 26.3363 26.5893C26.0018 26.5893 25.7077 26.6724 25.4542 26.8386C25.2028 27.0048 25.0067 27.2466 24.8661 27.5641C24.7255 27.8794 24.6552 28.2651 24.6552 28.7211C24.6552 29.177 24.7244 29.5648 24.8629 29.8844C25.0014 30.204 25.1974 30.448 25.451 30.6163C25.7045 30.7825 26.0039 30.8656 26.3491 30.8656C26.6623 30.8656 26.9297 30.8102 27.1513 30.6994C27.375 30.5865 27.5455 30.4277 27.6626 30.2232C27.782 30.0186 27.8416 29.7768 27.8416 29.4977L28.1229 29.5392H26.4354V28.4973H29.1744V29.3219C29.1744 29.8972 29.0529 30.3915 28.81 30.8049C28.5671 31.2161 28.2326 31.5336 27.8065 31.7573C27.3803 31.9789 26.8924 32.0897 26.3427 32.0897C25.729 32.0897 25.19 31.9544 24.7255 31.6838C24.261 31.411 23.8988 31.0243 23.6388 30.5236C23.381 30.0208 23.2521 29.4242 23.2521 28.7338C23.2521 28.2033 23.3288 27.7303 23.4822 27.3148C23.6378 26.8972 23.8551 26.5435 24.1342 26.2537C24.4134 25.964 24.7383 25.7434 25.109 25.5922C25.4798 25.4409 25.8814 25.3652 26.3139 25.3652C26.6847 25.3652 27.0298 25.4196 27.3494 25.5282C27.669 25.6348 27.9524 25.786 28.1996 25.9821C28.4489 26.1781 28.6523 26.4114 28.81 26.682C28.9677 26.9505 29.0689 27.2466 29.1136 27.5705H27.7074Z" fill="white"/>
</svg>
