<svg width="40" height="40" viewBox="0 0 40 40" fill="none" xmlns="http://www.w3.org/2000/svg">
<path d="M4 4C4 1.79086 5.79086 0 8 0H24L36 12V36C36 38.2091 34.2091 40 32 40H8C5.79086 40 4 38.2091 4 36V4Z" fill="#7839EE"/>
<path d="M24 0L36 12H28C25.7909 12 24 10.2091 24 8V0Z" fill="#A77EF4"/>
<path d="M14.2873 25.4547H15.6552V30.0186C15.6552 30.4405 15.5604 30.807 15.3708 31.1181C15.1833 31.4292 14.9223 31.6689 14.5877 31.8372C14.2532 32.0055 13.8644 32.0897 13.4212 32.0897C13.027 32.0897 12.6691 32.0204 12.3473 31.8819C12.0277 31.7413 11.7742 31.5282 11.5867 31.2427C11.3992 30.9551 11.3065 30.5939 11.3086 30.1593H12.6861C12.6904 30.3319 12.7255 30.4799 12.7916 30.6035C12.8598 30.725 12.9525 30.8187 13.0696 30.8848C13.189 30.9487 13.3296 30.9806 13.4915 30.9806C13.662 30.9806 13.8058 30.9444 13.923 30.872C14.0423 30.7974 14.1328 30.6887 14.1946 30.546C14.2564 30.4032 14.2873 30.2275 14.2873 30.0186V25.4547Z" fill="white"/>
<path d="M16.7994 32.0002V25.4547H19.3818C19.8782 25.4547 20.3012 25.5495 20.6506 25.7392C21 25.9267 21.2664 26.1877 21.4496 26.5222C21.635 26.8546 21.7277 27.2381 21.7277 27.6728C21.7277 28.1074 21.6339 28.4909 21.4464 28.8233C21.2589 29.1557 20.9873 29.4146 20.6314 29.6C20.2777 29.7853 19.8495 29.878 19.3466 29.878H17.7007V28.769H19.1229C19.3892 28.769 19.6087 28.7232 19.7813 28.6316C19.956 28.5378 20.086 28.4089 20.1712 28.2449C20.2586 28.0787 20.3022 27.888 20.3022 27.6728C20.3022 27.4554 20.2586 27.2658 20.1712 27.1039C20.086 26.9398 19.956 26.813 19.7813 26.7235C19.6066 26.6319 19.385 26.5861 19.1165 26.5861H18.1833V32.0002H16.7994Z" fill="white"/>
<path d="M26.9667 27.5705C26.922 27.415 26.8591 27.2775 26.7782 27.1582C26.6972 27.0368 26.5981 26.9345 26.4809 26.8514C26.3659 26.7662 26.2338 26.7012 26.0846 26.6564C25.9376 26.6117 25.7746 26.5893 25.5957 26.5893C25.2611 26.5893 24.9671 26.6724 24.7135 26.8386C24.4621 27.0048 24.2661 27.2466 24.1255 27.5641C23.9849 27.8794 23.9145 28.2651 23.9145 28.7211C23.9145 29.177 23.9838 29.5648 24.1223 29.8844C24.2608 30.204 24.4568 30.448 24.7104 30.6163C24.9639 30.7825 25.2633 30.8656 25.6084 30.8656C25.9216 30.8656 26.189 30.8102 26.4106 30.6994C26.6344 30.5865 26.8048 30.4277 26.922 30.2232C27.0413 30.0186 27.101 29.7768 27.101 29.4977L27.3822 29.5392H25.6947V28.4973H28.4337V29.3219C28.4337 29.8972 28.3123 30.3915 28.0694 30.8049C27.8265 31.2161 27.492 31.5336 27.0658 31.7573C26.6397 31.9789 26.1518 32.0897 25.602 32.0897C24.9884 32.0897 24.4493 31.9544 23.9849 31.6838C23.5204 31.411 23.1581 31.0243 22.8982 30.5236C22.6404 30.0208 22.5115 29.4242 22.5115 28.7338C22.5115 28.2033 22.5882 27.7303 22.7416 27.3148C22.8971 26.8972 23.1145 26.5435 23.3936 26.2537C23.6727 25.964 23.9976 25.7434 24.3684 25.5922C24.7391 25.4409 25.1407 25.3652 25.5733 25.3652C25.944 25.3652 26.2892 25.4196 26.6088 25.5282C26.9284 25.6348 27.2118 25.786 27.4589 25.9821C27.7082 26.1781 27.9117 26.4114 28.0694 26.682C28.227 26.9505 28.3282 27.2466 28.373 27.5705H26.9667Z" fill="white"/>
</svg>
