<svg width="40" height="40" viewBox="0 0 40 40" fill="none" xmlns="http://www.w3.org/2000/svg">
<path d="M4 4C4 1.79086 5.79086 0 8 0H24L36 12V36C36 38.2091 34.2091 40 32 40H8C5.79086 40 4 38.2091 4 36V4Z" fill="#039855"/>
<path opacity="0.3" d="M24 0L36 12H28C25.7909 12 24 10.2091 24 8V0Z" fill="white"/>
<path d="M16.6442 27.7463H15.2443C15.2188 27.5652 15.1665 27.4043 15.0877 27.2637C15.0089 27.1209 14.9077 26.9995 14.7841 26.8993C14.6605 26.7992 14.5178 26.7225 14.3558 26.6692C14.196 26.6159 14.0224 26.5893 13.8349 26.5893C13.4961 26.5893 13.201 26.6735 12.9496 26.8418C12.6982 27.008 12.5032 27.2509 12.3647 27.5705C12.2262 27.888 12.157 28.2736 12.157 28.7275C12.157 29.1941 12.2262 29.5861 12.3647 29.9036C12.5053 30.2211 12.7013 30.4608 12.9528 30.6227C13.2042 30.7846 13.495 30.8656 13.8253 30.8656C14.0107 30.8656 14.1822 30.8411 14.3398 30.7921C14.4996 30.7431 14.6413 30.6717 14.7649 30.5779C14.8885 30.4821 14.9908 30.3659 15.0717 30.2296C15.1548 30.0932 15.2124 29.9377 15.2443 29.763L16.6442 29.7694C16.608 30.0698 16.5174 30.3596 16.3725 30.6387C16.2298 30.9157 16.0369 31.1639 15.794 31.3833C15.5533 31.6007 15.2656 31.7733 14.9311 31.9011C14.5987 32.0268 14.2227 32.0897 13.8029 32.0897C13.2191 32.0897 12.6971 31.9576 12.2369 31.6934C11.7788 31.4292 11.4165 31.0467 11.1502 30.546C10.886 30.0453 10.7539 29.4391 10.7539 28.7275C10.7539 28.0137 10.8881 27.4064 11.1566 26.9057C11.4251 26.405 11.7894 26.0236 12.2496 25.7615C12.7099 25.4973 13.2276 25.3652 13.8029 25.3652C14.1822 25.3652 14.5337 25.4185 14.8576 25.525C15.1836 25.6316 15.4723 25.7871 15.7237 25.9917C15.9751 26.1941 16.1797 26.4423 16.3374 26.7363C16.4972 27.0304 16.5994 27.367 16.6442 27.7463Z" fill="white"/>
<path d="M21.1873 27.3372C21.1618 27.0794 21.052 26.8791 20.8581 26.7363C20.6642 26.5936 20.4011 26.5222 20.0687 26.5222C19.8429 26.5222 19.6522 26.5542 19.4966 26.6181C19.3411 26.6799 19.2218 26.7662 19.1387 26.877C19.0577 26.9877 19.0172 27.1135 19.0172 27.2541C19.013 27.3713 19.0375 27.4735 19.0907 27.5609C19.1461 27.6483 19.2218 27.7239 19.3176 27.7878C19.4135 27.8496 19.5243 27.9039 19.65 27.9508C19.7757 27.9956 19.91 28.0339 20.0527 28.0659L20.6408 28.2065C20.9263 28.2704 21.1884 28.3556 21.427 28.4622C21.6657 28.5687 21.8723 28.6998 22.0471 28.8553C22.2218 29.0108 22.3571 29.1941 22.4529 29.405C22.551 29.6159 22.601 29.8578 22.6032 30.1305C22.601 30.5311 22.4988 30.8784 22.2963 31.1724C22.0961 31.4643 21.8063 31.6912 21.427 31.8532C21.0499 32.013 20.595 32.0929 20.0623 32.0929C19.5339 32.0929 19.0737 32.0119 18.6816 31.85C18.2917 31.688 17.987 31.4483 17.7676 31.1309C17.5502 30.8113 17.4363 30.416 17.4256 29.9451H18.7647C18.7797 30.1646 18.8425 30.3478 18.9533 30.4949C19.0662 30.6397 19.2164 30.7495 19.4039 30.824C19.5936 30.8965 19.8077 30.9327 20.0463 30.9327C20.2807 30.9327 20.4842 30.8986 20.6568 30.8304C20.8315 30.7623 20.9668 30.6674 21.0627 30.546C21.1586 30.4245 21.2065 30.285 21.2065 30.1273C21.2065 29.9803 21.1628 29.8567 21.0755 29.7566C20.9902 29.6564 20.8645 29.5712 20.6983 29.5009C20.5343 29.4306 20.3329 29.3667 20.0943 29.3091L19.3816 29.1301C18.8297 28.9959 18.394 28.786 18.0744 28.5005C17.7548 28.215 17.5961 27.8304 17.5982 27.3468C17.5961 26.9505 17.7015 26.6042 17.9146 26.3081C18.1298 26.0119 18.4249 25.7807 18.7999 25.6145C19.1749 25.4483 19.601 25.3652 20.0783 25.3652C20.5641 25.3652 20.9881 25.4483 21.3503 25.6145C21.7147 25.7807 21.998 26.0119 22.2005 26.3081C22.4029 26.6042 22.5073 26.9473 22.5137 27.3372H21.1873Z" fill="white"/>
<path d="M24.7165 25.4547L26.2986 30.4277H26.3593L27.9445 25.4547H29.4786L27.2222 32.0002H25.4388L23.1792 25.4547H24.7165Z" fill="white"/>
</svg>
