<svg width="40" height="40" viewBox="0 0 40 40" fill="none" xmlns="http://www.w3.org/2000/svg">
<path d="M4 4C4 1.79086 5.79086 0 8 0H24L36 12V36C36 38.2091 34.2091 40 32 40H8C5.79086 40 4 38.2091 4 36V4Z" fill="#155EEF"/>
<path opacity="0.3" d="M24 0L36 12H28C25.7909 12 24 10.2091 24 8V0Z" fill="white"/>
<path d="M12.7109 32.0002H10.3906V25.4547H12.7301C13.3885 25.4547 13.9553 25.5858 14.4304 25.8478C14.9055 26.1078 15.271 26.4817 15.5266 26.9696C15.7844 27.4576 15.9134 28.0414 15.9134 28.7211C15.9134 29.4029 15.7844 29.9888 15.5266 30.4789C15.271 30.9689 14.9034 31.345 14.424 31.6071C13.9467 31.8691 13.3757 32.0002 12.7109 32.0002ZM11.7745 30.8145H12.6534C13.0625 30.8145 13.4066 30.742 13.6857 30.5971C13.967 30.4501 14.1779 30.2232 14.3185 29.9164C14.4613 29.6074 14.5327 29.209 14.5327 28.7211C14.5327 28.2374 14.4613 27.8422 14.3185 27.5353C14.1779 27.2285 13.968 27.0027 13.6889 26.8578C13.4098 26.7129 13.0657 26.6404 12.6566 26.6404H11.7745V30.8145Z" fill="white"/>
<path d="M22.9534 28.7275C22.9534 29.4412 22.8181 30.0485 22.5475 30.5492C22.279 31.0499 21.9126 31.4324 21.4481 31.6966C20.9857 31.9586 20.4658 32.0897 19.8884 32.0897C19.3067 32.0897 18.7847 31.9576 18.3224 31.6934C17.86 31.4292 17.4946 31.0467 17.2261 30.546C16.9577 30.0453 16.8234 29.4391 16.8234 28.7275C16.8234 28.0137 16.9577 27.4064 17.2261 26.9057C17.4946 26.405 17.86 26.0236 18.3224 25.7615C18.7847 25.4973 19.3067 25.3652 19.8884 25.3652C20.4658 25.3652 20.9857 25.4973 21.4481 25.7615C21.9126 26.0236 22.279 26.405 22.5475 26.9057C22.8181 27.4064 22.9534 28.0137 22.9534 28.7275ZM21.5503 28.7275C21.5503 28.2651 21.4811 27.8752 21.3426 27.5577C21.2062 27.2402 21.0134 26.9995 20.7641 26.8354C20.5148 26.6713 20.2229 26.5893 19.8884 26.5893C19.5539 26.5893 19.262 26.6713 19.0127 26.8354C18.7634 26.9995 18.5695 27.2402 18.431 27.5577C18.2947 27.8752 18.2265 28.2651 18.2265 28.7275C18.2265 29.1898 18.2947 29.5797 18.431 29.8972C18.5695 30.2147 18.7634 30.4554 19.0127 30.6195C19.262 30.7836 19.5539 30.8656 19.8884 30.8656C20.2229 30.8656 20.5148 30.7836 20.7641 30.6195C21.0134 30.4554 21.2062 30.2147 21.3426 29.8972C21.4811 29.5797 21.5503 29.1898 21.5503 28.7275Z" fill="white"/>
<path d="M29.7537 27.7463H28.3539C28.3283 27.5652 28.2761 27.4043 28.1973 27.2637C28.1184 27.1209 28.0172 26.9995 27.8936 26.8993C27.7701 26.7992 27.6273 26.7225 27.4654 26.6692C27.3056 26.6159 27.1319 26.5893 26.9444 26.5893C26.6056 26.5893 26.3105 26.6735 26.0591 26.8418C25.8077 27.008 25.6127 27.2509 25.4743 27.5705C25.3358 27.888 25.2665 28.2736 25.2665 28.7275C25.2665 29.1941 25.3358 29.5861 25.4743 29.9036C25.6149 30.2211 25.8109 30.4608 26.0623 30.6227C26.3137 30.7846 26.6046 30.8656 26.9348 30.8656C27.1202 30.8656 27.2917 30.8411 27.4494 30.7921C27.6092 30.7431 27.7509 30.6717 27.8745 30.5779C27.998 30.4821 28.1003 30.3659 28.1813 30.2296C28.2644 30.0932 28.3219 29.9377 28.3539 29.763L29.7537 29.7694C29.7175 30.0698 29.627 30.3596 29.4821 30.6387C29.3393 30.9157 29.1465 31.1639 28.9036 31.3833C28.6628 31.6007 28.3752 31.7733 28.0407 31.9011C27.7083 32.0268 27.3322 32.0897 26.9125 32.0897C26.3287 32.0897 25.8066 31.9576 25.3464 31.6934C24.8883 31.4292 24.5261 31.0467 24.2598 30.546C23.9956 30.0453 23.8635 29.4391 23.8635 28.7275C23.8635 28.0137 23.9977 27.4064 24.2662 26.9057C24.5346 26.405 24.899 26.0236 25.3592 25.7615C25.8194 25.4973 26.3372 25.3652 26.9125 25.3652C27.2917 25.3652 27.6433 25.4185 27.9672 25.525C28.2931 25.6316 28.5819 25.7871 28.8333 25.9917C29.0847 26.1941 29.2892 26.4423 29.4469 26.7363C29.6067 27.0304 29.709 27.367 29.7537 27.7463Z" fill="white"/>
</svg>
