<svg width="40" height="40" viewBox="0 0 40 40" fill="none" xmlns="http://www.w3.org/2000/svg">
<path d="M4 4C4 1.79086 5.79086 0 8 0H24L36 12V36C36 38.2091 34.2091 40 32 40H8C5.79086 40 4 38.2091 4 36V4Z" fill="#D92D20"/>
<path opacity="0.3" d="M24 0L36 12H28C25.7909 12 24 10.2091 24 8V0Z" fill="white"/>
<path d="M11.75 32V25.4546H14.3324C14.8288 25.4546 15.2518 25.5494 15.6012 25.739C15.9506 25.9265 16.217 26.1875 16.4002 26.5221C16.5856 26.8544 16.6783 27.238 16.6783 27.6726C16.6783 28.1073 16.5845 28.4908 16.397 28.8232C16.2095 29.1556 15.9379 29.4145 15.582 29.5998C15.2283 29.7852 14.8001 29.8779 14.2972 29.8779H12.6513V28.7689H14.0735C14.3398 28.7689 14.5593 28.7231 14.7319 28.6314C14.9066 28.5377 15.0366 28.4088 15.1218 28.2447C15.2092 28.0785 15.2528 27.8878 15.2528 27.6726C15.2528 27.4553 15.2092 27.2657 15.1218 27.1037C15.0366 26.9397 14.9066 26.8129 14.7319 26.7234C14.5572 26.6318 14.3356 26.586 14.0671 26.586H13.1339V32H11.75Z" fill="white"/>
<path d="M19.8975 32H17.5771V25.4546H19.9166C20.575 25.4546 21.1418 25.5856 21.6169 25.8477C22.0921 26.1076 22.4575 26.4816 22.7132 26.9695C22.971 27.4574 23.0999 28.0412 23.0999 28.7209C23.0999 29.4027 22.971 29.9887 22.7132 30.4787C22.4575 30.9688 22.0899 31.3449 21.6105 31.6069C21.1333 31.869 20.5622 32 19.8975 32ZM18.961 30.8143H19.8399C20.249 30.8143 20.5931 30.7419 20.8722 30.597C21.1535 30.45 21.3644 30.2231 21.5051 29.9162C21.6478 29.6073 21.7192 29.2089 21.7192 28.7209C21.7192 28.2373 21.6478 27.842 21.5051 27.5352C21.3644 27.2284 21.1546 27.0025 20.8754 26.8576C20.5963 26.7128 20.2522 26.6403 19.8431 26.6403H18.961V30.8143Z" fill="white"/>
<path d="M24.125 32V25.4546H28.4588V26.5956H25.5089V28.1552H28.1712V29.2962H25.5089V32H24.125Z" fill="white"/>
</svg>
