<svg width="512" height="512" viewBox="0 0 512 512" fill="none" xmlns="http://www.w3.org/2000/svg">
<path fill-rule="evenodd" clip-rule="evenodd" d="M24.917 277.617L185.195 437.895C197.085 449.785 216.54 449.785 228.43 437.895L388.708 277.617C400.598 265.727 400.598 246.272 388.708 234.382L228.43 74.105C216.54 62.215 197.085 62.215 185.195 74.105L24.917 234.383C13.027 246.273 13.027 265.728 24.917 277.618V277.617Z" fill="#A3B7FF"/>
<path fill-rule="evenodd" clip-rule="evenodd" d="M214.813 445.76C219.965 444.382 224.662 441.669 228.43 437.895L388.708 277.617C400.598 265.727 400.598 246.272 388.708 234.382L228.43 74.1052C224.662 70.3315 219.965 67.6185 214.813 66.2402C209.661 67.6183 204.964 70.3313 201.196 74.1052L40.918 234.383C29.028 246.273 29.028 265.728 40.918 277.618L201.196 437.896C204.964 441.67 209.661 444.382 214.813 445.76Z" fill="#C2CEFC"/>
<path fill-rule="evenodd" clip-rule="evenodd" d="M123.292 277.617L283.57 437.895C295.46 449.785 314.915 449.785 326.805 437.895L487.083 277.617C498.973 265.727 498.973 246.272 487.083 234.382L326.805 74.105C314.915 62.215 295.46 62.215 283.57 74.105L123.292 234.383C111.402 246.273 111.402 265.728 123.292 277.618V277.617Z" fill="#335FFF"/>
<path fill-rule="evenodd" clip-rule="evenodd" d="M313.188 445.76C318.34 444.382 323.037 441.669 326.805 437.895L487.083 277.617C498.973 265.727 498.973 246.272 487.083 234.382L326.805 74.1052C323.037 70.3315 318.34 67.6185 313.188 66.2402C308.036 67.618 303.339 70.3311 299.571 74.1052L139.292 234.383C127.402 246.273 127.402 265.728 139.292 277.618L299.57 437.896C303.338 441.67 308.035 444.383 313.187 445.761L313.188 445.76Z" fill="#466FFD"/>
</svg>
