<svg width="512" height="512" viewBox="0 0 512 512" fill="none" xmlns="http://www.w3.org/2000/svg">
<path d="M456 256C456 291.107 446.759 325.596 429.205 356L256 256H456Z" fill="#F45542"/>
<path d="M429.194 356.02C411.637 386.422 386.386 411.667 355.98 429.216L256 256L429.194 356.02Z" fill="#DD3242"/>
<path d="M355.982 429.216C325.576 446.766 291.086 456.004 255.979 456L256 256L355.982 429.216Z" fill="#AF2F79"/>
<path d="M56 256C55.9999 291.107 65.2411 325.596 82.795 356L256 256H56Z" fill="#2656AB"/>
<path d="M82.8064 356.02C100.363 386.422 125.614 411.667 156.02 429.216L256 256L82.8064 356.02Z" fill="#7943A3"/>
<path d="M156.019 429.216C186.424 446.766 220.914 456.004 256.021 456L256 256L156.019 429.216Z" fill="#A23CA2"/>
<path d="M56 256C55.9999 220.893 65.2411 186.404 82.795 156L256 256H56Z" fill="#019A85"/>
<path d="M82.8064 155.98C100.363 125.578 125.614 100.333 156.02 82.7832L256 256L82.8064 155.98Z" fill="#01AE5C"/>
<path d="M156.019 82.7845C186.424 65.2341 220.914 55.9964 256.021 56L256 256L156.019 82.7845Z" fill="#A1CF49"/>
<path d="M456 256C456 220.893 446.759 186.404 429.205 156L256 256H456Z" fill="#F97827"/>
<path d="M429.194 155.98C411.637 125.578 386.386 100.333 355.98 82.7832L256 256L429.194 155.98Z" fill="#FCA313"/>
<path d="M355.982 82.7845C325.576 65.2341 291.086 55.9964 255.979 56L256 256L355.982 82.7845Z" fill="#FFE503"/>
</svg>
