<svg width="256" height="256" viewBox="0 0 256 256" fill="none" xmlns="http://www.w3.org/2000/svg">
<path d="M85.3854 256C108.937 256 128.052 236.885 128.052 213.333V170.667H85.3854C61.8334 170.667 42.7188 189.781 42.7188 213.333C42.7188 236.885 61.8334 256 85.3854 256Z" fill="#0ACF83"/>
<path d="M42.7188 128C42.7188 104.448 61.8334 85.3335 85.3854 85.3335H128.052V170.667H85.3854C61.8334 170.667 42.7188 151.552 42.7188 128Z" fill="#A259FF"/>
<path d="M42.7188 42.6667C42.7188 19.1147 61.8334 0 85.3854 0H128.052V85.3333H85.3854C61.8334 85.3333 42.7188 66.2187 42.7188 42.6667Z" fill="#F24E1E"/>
<path d="M128.051 0H170.717C194.269 0 213.384 19.1147 213.384 42.6667C213.384 66.2187 194.269 85.3333 170.717 85.3333H128.051V0Z" fill="#FF7262"/>
<path d="M213.384 128C213.384 151.552 194.269 170.667 170.717 170.667C147.165 170.667 128.051 151.552 128.051 128C128.051 104.448 147.165 85.3335 170.717 85.3335C194.269 85.3335 213.384 104.448 213.384 128Z" fill="#1ABCFE"/>
</svg>
