<svg width="512" height="512" viewBox="0 0 512 512" fill="none" xmlns="http://www.w3.org/2000/svg">
<path d="M195.927 123.509C198.489 126.067 202.326 127.346 205.74 127.346C209.154 127.346 212.563 126.063 215.549 123.509C221.093 117.961 221.093 109.435 215.549 103.886L201.047 89.3842H381.908L367.406 103.886C361.857 109.43 361.857 117.961 367.406 123.509C369.964 126.067 373.801 127.346 377.215 127.346C380.625 127.346 384.038 126.063 387.024 123.509L424.986 85.5427C430.535 79.9985 430.535 71.4684 424.986 65.92L387.024 27.9579C381.48 22.4138 372.95 22.4138 367.402 27.9579C361.853 33.5021 361.857 42.0322 367.402 47.5806L381.904 62.0827H201.051L215.126 48.0084C220.674 42.46 220.674 33.9341 215.126 28.3857C209.582 22.8416 201.051 22.8416 195.507 28.3857L157.969 66.3477C152.425 71.8919 152.425 80.422 157.969 85.9704L195.927 123.509ZM102.938 216.07C105.5 218.628 109.338 219.907 112.751 219.907C116.161 219.907 119.575 218.628 122.561 216.07C128.105 210.526 128.105 201.996 122.561 196.447L84.5986 158.913C79.0502 153.364 70.5243 153.364 64.9759 158.913L27.0139 196.875C21.4654 202.419 21.4654 210.949 27.0139 216.498C32.558 222.042 41.0881 222.042 46.6323 216.498L61.1343 201.995V382.852L47.0601 368.778C41.5159 363.229 32.9858 363.229 27.4374 368.778C21.8889 374.326 21.8932 382.852 27.4374 388.396L65.4037 426.362C67.9619 428.921 71.7991 430.2 75.2129 430.2C78.6267 430.2 82.0361 428.916 85.0221 426.362L122.988 388.396C128.533 382.852 128.533 374.322 122.988 368.778C117.44 363.229 108.914 363.229 103.366 368.778L88.8637 383.28V201.991L102.938 216.07ZM415.177 155.071H167.774C160.099 155.071 154.127 161.043 154.127 168.718V416.126C154.127 423.8 160.099 429.772 167.774 429.772H415.177C422.856 429.772 428.824 423.8 428.824 416.126V168.722C428.824 161.043 422.856 155.071 415.177 155.071Z" fill="#C65910"/>
</svg>
