<svg width="512" height="512" viewBox="0 0 512 512" fill="none" xmlns="http://www.w3.org/2000/svg">
<path fill-rule="evenodd" clip-rule="evenodd" d="M80.276 60H431.724C442.922 60 452 69.078 452 80.276V147.862C452 159.06 442.922 168.138 431.724 168.138H80.276C69.078 168.138 60 159.06 60 147.862V80.276C60 69.078 69.078 60 80.276 60ZM80.276 343.862H431.724C442.922 343.862 452 352.94 452 364.138V431.725C452 442.922 442.922 452 431.724 452H80.276C69.078 452 60 442.922 60 431.724V364.138C60 352.94 69.078 343.862 80.276 343.862ZM264.739 213.468C266.013 214.701 267.721 215.384 269.495 215.37C271.268 215.355 272.964 214.644 274.218 213.39C275.472 212.136 276.183 210.44 276.198 208.666C276.212 206.893 275.529 205.185 274.296 203.911L260.779 190.394C259.512 189.127 257.793 188.415 256.001 188.415C254.209 188.415 252.49 189.127 251.222 190.394L237.705 203.911C236.472 205.185 235.789 206.893 235.804 208.666C235.818 210.44 236.529 212.136 237.783 213.39C239.037 214.644 240.734 215.355 242.507 215.37C244.28 215.384 245.988 214.701 247.263 213.468L249.243 211.487V249.241H242.484C240.691 249.241 238.972 249.953 237.704 251.221C236.437 252.488 235.725 254.207 235.725 256C235.725 257.793 236.437 259.512 237.704 260.779C238.972 262.047 240.691 262.759 242.484 262.759H249.243V300.513L247.263 298.533C245.988 297.3 244.28 296.617 242.507 296.631C240.734 296.646 239.037 297.356 237.783 298.61C236.529 299.864 235.818 301.561 235.804 303.334C235.789 305.108 236.472 306.816 237.705 308.09L251.222 321.607C252.49 322.874 254.209 323.586 256.001 323.586C257.793 323.586 259.512 322.874 260.779 321.607L274.296 308.09C275.529 306.816 276.212 305.108 276.198 303.334C276.183 301.561 275.472 299.864 274.218 298.61C272.964 297.356 271.268 296.646 269.495 296.631C267.721 296.617 266.013 297.3 264.739 298.533L262.759 300.513V262.759H269.518C271.31 262.759 273.03 262.047 274.297 260.779C275.565 259.512 276.277 257.793 276.277 256C276.277 254.207 275.565 252.488 274.297 251.221C273.03 249.953 271.31 249.241 269.518 249.241H262.759V211.487L264.739 213.468ZM215.448 249.241H188.414C186.621 249.241 184.902 249.953 183.634 251.221C182.367 252.488 181.655 254.207 181.655 256C181.655 257.793 182.367 259.512 183.634 260.779C184.902 262.047 186.621 262.759 188.414 262.759H215.448C217.24 262.759 218.96 262.047 220.227 260.779C221.495 259.512 222.207 257.793 222.207 256C222.207 254.207 221.495 252.488 220.227 251.221C218.96 249.953 217.24 249.241 215.448 249.241ZM161.379 249.241H134.345C132.553 249.241 130.834 249.953 129.566 251.221C128.298 252.488 127.586 254.207 127.586 256C127.586 257.793 128.298 259.512 129.566 260.779C130.834 262.047 132.553 262.759 134.345 262.759H161.379C163.172 262.759 164.891 262.047 166.159 260.779C167.426 259.512 168.138 257.793 168.138 256C168.138 254.207 167.426 252.488 166.159 251.221C164.891 249.953 163.172 249.241 161.379 249.241ZM107.31 249.241H80.276C78.4835 249.241 76.7643 249.953 75.4968 251.221C74.2292 252.488 73.5171 254.207 73.5171 256C73.5171 257.793 74.2292 259.512 75.4968 260.779C76.7643 262.047 78.4835 262.759 80.276 262.759H107.31C109.103 262.759 110.822 262.047 112.09 260.779C113.357 259.512 114.069 257.793 114.069 256C114.069 254.207 113.357 252.488 112.09 251.221C110.822 249.953 109.103 249.241 107.31 249.241ZM431.724 249.241H404.69C402.897 249.241 401.178 249.953 399.91 251.221C398.643 252.488 397.931 254.207 397.931 256C397.931 257.793 398.643 259.512 399.91 260.779C401.178 262.047 402.897 262.759 404.69 262.759H431.724C433.517 262.759 435.236 262.047 436.503 260.779C437.771 259.512 438.483 257.793 438.483 256C438.483 254.207 437.771 252.488 436.503 251.221C435.236 249.953 433.517 249.241 431.724 249.241ZM377.656 249.241H350.621C348.829 249.241 347.11 249.953 345.842 251.221C344.574 252.488 343.862 254.207 343.862 256C343.862 257.793 344.574 259.512 345.842 260.779C347.11 262.047 348.829 262.759 350.621 262.759H377.656C379.448 262.759 381.167 262.047 382.435 260.779C383.702 259.512 384.414 257.793 384.414 256C384.414 254.207 383.702 252.488 382.435 251.221C381.167 249.953 379.448 249.241 377.656 249.241ZM323.586 249.241H296.552C294.76 249.241 293.04 249.953 291.773 251.221C290.505 252.488 289.793 254.207 289.793 256C289.793 257.793 290.505 259.512 291.773 260.779C293.04 262.047 294.76 262.759 296.552 262.759H323.586C325.379 262.759 327.098 262.047 328.366 260.779C329.633 259.512 330.345 257.793 330.345 256C330.345 254.207 329.633 252.488 328.366 251.221C327.098 249.953 325.379 249.241 323.586 249.241Z" fill="black"/>
<path d="M80.2764 347.862H431.724C440.713 347.862 448 355.15 448 364.139V431.725C448 440.713 440.713 448 431.724 448H80.2764C71.2875 448 64 440.713 64 431.724V364.138C64 355.149 71.2873 347.862 80.2764 347.862Z" fill="white"/>
<path d="M80.2764 347.862H431.724C440.713 347.862 448 355.15 448 364.139V431.725C448 440.713 440.713 448 431.724 448H80.2764C71.2875 448 64 440.713 64 431.724V364.138C64 355.149 71.2873 347.862 80.2764 347.862Z" fill="#BD3232" fill-opacity="0.5"/>
<path d="M80.2764 347.862H431.724C440.713 347.862 448 355.15 448 364.139V431.725C448 440.713 440.713 448 431.724 448H80.2764C71.2875 448 64 440.713 64 431.724V364.138C64 355.149 71.2873 347.862 80.2764 347.862Z" stroke="#BD3232" stroke-width="8"/>
<path d="M80.2764 64H431.724C440.713 64 448 71.2875 448 80.2764V147.862C448 156.851 440.713 164.139 431.724 164.139H80.2764C71.287 164.138 64 156.851 64 147.862V80.2764C64 71.2875 71.2875 64 80.2764 64Z" fill="white"/>
<path d="M80.2764 64H431.724C440.713 64 448 71.2875 448 80.2764V147.862C448 156.851 440.713 164.139 431.724 164.139H80.2764C71.287 164.138 64 156.851 64 147.862V80.2764C64 71.2875 71.2875 64 80.2764 64Z" fill="#BD3232" fill-opacity="0.5"/>
<path d="M80.2764 64H431.724C440.713 64 448 71.2875 448 80.2764V147.862C448 156.851 440.713 164.139 431.724 164.139H80.2764C71.287 164.138 64 156.851 64 147.862V80.2764C64 71.2875 71.2875 64 80.2764 64Z" stroke="#BD3232" stroke-width="8"/>
</svg>
